<svg width="473" height="543" viewBox="0 0 473 543" fill="none" xmlns="http://www.w3.org/2000/svg">
<path d="M120.518 370.436C121.252 373.511 121.755 376.675 122.006 379.91L120.778 380.006C120.898 381.558 120.959 383.127 120.959 384.71C120.959 386.294 120.898 387.863 120.778 389.415L122.006 389.511C121.755 392.746 121.252 395.91 120.518 398.985L119.319 398.698C118.584 401.777 117.61 404.763 116.42 407.636L117.559 408.107C116.327 411.081 114.867 413.937 113.202 416.652L112.151 416.008C110.507 418.688 108.657 421.23 106.625 423.61L107.562 424.411C105.483 426.845 103.216 429.115 100.783 431.197L99.9821 430.261C97.6038 432.296 95.0642 434.148 92.3853 435.795L93.0306 436.845C90.3167 438.513 87.4625 439.975 84.4899 441.209L84.0175 440.071C81.1452 441.264 78.16 442.239 75.0825 442.976L75.3695 444.174C72.2953 444.911 69.1309 445.414 65.8958 445.666L65.8003 444.438C64.2482 444.558 62.6793 444.62 61.0958 444.62C59.5122 444.62 57.9433 444.558 56.3913 444.438L56.2957 445.666C53.0606 445.414 49.8962 444.911 46.822 444.174L47.109 442.976C44.0315 442.239 41.0463 441.264 38.174 440.071L37.7016 441.209C34.729 439.975 31.8748 438.513 29.1609 436.845L29.8062 435.795C27.1273 434.148 24.5877 432.296 22.2094 430.261L21.4082 431.197C18.9759 429.115 16.7089 426.845 14.6297 424.411L15.5667 423.61C13.534 421.23 11.6846 418.688 10.0401 416.008L8.98986 416.652C7.32429 413.937 5.86471 411.081 4.63289 408.107L5.7712 407.636C4.58108 404.763 3.60798 401.777 2.87233 398.698L1.67398 398.985C0.939242 395.91 0.436566 392.746 0.18551 389.511L1.41392 389.415C1.29347 387.863 1.2321 386.294 1.2321 384.71C1.2321 383.127 1.29347 381.558 1.41392 380.006L0.185511 379.91C0.436568 376.675 0.939246 373.511 1.67398 370.436L2.87234 370.722C3.60799 367.644 4.58109 364.658 5.77121 361.785L4.6329 361.314C5.86472 358.34 7.3243 355.484 8.98987 352.769L10.0401 353.413C11.6846 350.732 13.534 348.191 15.5667 345.81L14.6297 345.01C16.709 342.575 18.9759 340.306 21.4082 338.224L22.2094 339.16C24.5878 337.125 27.1273 335.273 29.8062 333.626L29.1609 332.576C31.8748 330.908 34.729 329.446 37.7016 328.212L38.174 329.349C41.0463 328.157 44.0315 327.182 47.109 326.445L46.822 325.247C49.8962 324.51 53.0606 324.007 56.2957 323.755L56.3913 324.983C57.9433 324.863 59.5122 324.801 61.0958 324.801C62.6793 324.801 64.2482 324.863 65.8003 324.983L65.8958 323.755C69.1309 324.007 72.2953 324.51 75.3695 325.247L75.0825 326.445C78.16 327.182 81.1452 328.157 84.0175 329.349L84.4899 328.212C87.4625 329.446 90.3167 330.908 93.0306 332.576L92.3853 333.626C95.0642 335.273 97.6038 337.125 99.9822 339.16L100.783 338.224C103.216 340.306 105.483 342.575 107.562 345.01L106.625 345.81C108.657 348.191 110.507 350.732 112.151 353.413L113.202 352.769C114.867 355.484 116.327 358.34 117.559 361.314L116.42 361.785C117.61 364.658 118.584 367.644 119.319 370.723L120.518 370.436Z" stroke="#00A854" stroke-width="2.4642" stroke-dasharray="9.86 9.86"/>
<path d="M122.916 25.9688C124.3 29.3085 125.265 32.8652 125.749 36.5738L124.527 36.733C124.754 38.4779 124.872 40.2579 124.872 42.066C124.872 43.8741 124.754 45.6541 124.527 47.399L125.749 47.5582C125.265 51.2667 124.3 54.8235 122.916 58.1632L121.778 57.6917C120.403 61.0103 118.604 64.1087 116.447 66.9188L117.424 67.6691C115.187 70.5836 112.577 73.1965 109.665 75.4365L108.914 74.4599C106.106 76.6203 103.009 78.4229 99.6922 79.7999L100.165 80.9378C96.8256 82.324 93.2694 83.2919 89.5613 83.7761L89.4018 82.5544C87.657 82.7822 85.8771 82.8998 84.0692 82.8998C82.2612 82.8998 80.4813 82.7822 78.7366 82.5544L78.5771 83.7761C74.869 83.2919 71.3128 82.324 67.9737 80.9378L68.4462 79.7999C65.1293 78.4229 62.0327 76.6203 59.2245 74.4599L58.4732 75.4365C55.5617 73.1965 52.9516 70.5836 50.7144 67.6691L51.6918 66.9188C49.5347 64.1087 47.7351 61.0103 46.3605 57.6917L45.2221 58.1632C43.8388 54.8234 42.8729 51.2667 42.3897 47.5582L43.6115 47.399C43.3841 45.6541 43.2668 43.8741 43.2668 42.066C43.2668 40.2579 43.3841 38.4779 43.6115 36.733L42.3897 36.5738C42.8729 32.8652 43.8388 29.3085 45.2221 25.9688L46.3605 26.4403C47.7351 23.1216 49.5347 20.0232 51.6918 17.2131L50.7144 16.4629C52.9516 13.5483 55.5617 10.9354 58.4732 8.69548L59.2245 9.67203C62.0327 7.51161 65.1293 5.70904 68.4462 4.33205L67.9738 3.19412C71.3128 1.80793 74.869 0.840053 78.5771 0.355817L78.7366 1.57754C80.4813 1.3497 82.2612 1.2321 84.0692 1.2321C85.8771 1.2321 87.657 1.3497 89.4018 1.57754L89.5613 0.355818C93.2694 0.840054 96.8256 1.80793 100.165 3.19412L99.6922 4.33206C103.009 5.70904 106.106 7.51161 108.914 9.67204L109.665 8.69549C112.577 10.9354 115.187 13.5483 117.424 16.4629L116.447 17.2131C118.604 20.0232 120.403 23.1216 121.778 26.4403L122.916 25.9688Z" stroke="#00A854" stroke-width="2.4642" stroke-dasharray="9.86 9.86"/>
<path d="M471.752 215.234C472.302 218.499 472.676 221.824 472.862 225.199L471.632 225.267C471.722 226.904 471.768 228.553 471.768 230.213C471.768 231.873 471.722 233.522 471.632 235.159L472.862 235.227C472.676 238.602 472.302 241.927 471.752 245.192L470.537 244.987C469.984 248.265 469.251 251.482 468.348 254.627L469.532 254.967C468.603 258.199 467.497 261.357 466.225 264.428L465.087 263.956C463.82 267.015 462.386 269.987 460.796 272.861L461.874 273.458C460.251 276.391 458.468 279.224 456.537 281.943L455.532 281.23C453.621 283.922 451.562 286.502 449.368 288.959L450.287 289.78C448.059 292.274 445.694 294.642 443.203 296.872L442.381 295.954C439.927 298.151 437.349 300.212 434.659 302.127L435.373 303.13C432.655 305.065 429.825 306.85 426.893 308.476L426.296 307.398C423.423 308.991 420.452 310.428 417.394 311.697L417.867 312.835C414.796 314.11 411.64 315.218 408.408 316.149L408.067 314.965C404.923 315.87 401.707 316.605 398.429 317.158L398.634 318.373C395.37 318.925 392.045 319.299 388.67 319.486L388.602 318.256C386.965 318.346 385.316 318.392 383.656 318.392C381.996 318.392 380.347 318.346 378.71 318.256L378.642 319.486C375.267 319.299 371.942 318.925 368.677 318.373L368.883 317.158C365.605 316.605 362.389 315.87 359.245 314.965L358.904 316.149C355.672 315.218 352.515 314.11 349.445 312.835L349.917 311.697C346.86 310.428 343.889 308.991 341.016 307.398L340.419 308.476C337.487 306.85 334.656 305.065 331.939 303.13L332.653 302.127C329.963 300.212 327.385 298.151 324.931 295.954L324.109 296.872C321.618 294.642 319.253 292.274 317.025 289.78L317.944 288.959C315.75 286.502 313.691 283.922 311.779 281.23L310.775 281.943C308.844 279.224 307.061 276.391 305.438 273.458L306.516 272.861C304.926 269.987 303.492 267.015 302.225 263.956L301.087 264.428C299.814 261.357 298.708 258.199 297.78 254.967L298.964 254.627C298.061 251.482 297.327 248.265 296.775 244.987L295.56 245.192C295.01 241.927 294.636 238.602 294.45 235.227L295.68 235.159C295.589 233.522 295.544 231.873 295.544 230.213C295.544 228.553 295.589 226.904 295.68 225.267L294.45 225.199C294.636 221.824 295.01 218.499 295.56 215.234L296.775 215.439C297.327 212.161 298.061 208.944 298.964 205.8L297.78 205.459C298.708 202.227 299.814 199.07 301.087 195.998L302.225 196.47C303.492 193.411 304.926 190.439 306.516 187.565L305.438 186.968C307.061 184.035 308.844 181.202 310.775 178.483L311.779 179.196C313.691 176.504 315.75 173.924 317.944 171.467L317.025 170.646C319.253 168.153 321.618 165.785 324.109 163.554L324.931 164.472C327.385 162.275 329.963 160.214 332.653 158.3L331.939 157.296C334.656 155.362 337.487 153.576 340.419 151.95L341.016 153.028C343.889 151.435 346.86 149.998 349.917 148.729L349.445 147.591C352.515 146.316 355.672 145.208 358.904 144.278L359.245 145.462C362.389 144.556 365.605 143.821 368.883 143.268L368.677 142.053C371.942 141.501 375.267 141.127 378.642 140.94L378.71 142.171C380.347 142.08 381.996 142.034 383.656 142.034C385.316 142.034 386.965 142.08 388.602 142.171L388.67 140.94C392.045 141.127 395.37 141.501 398.634 142.053L398.429 143.268C401.707 143.821 404.923 144.556 408.067 145.462L408.408 144.278C411.64 145.208 414.796 146.316 417.867 147.591L417.394 148.729C420.452 149.998 423.423 151.435 426.296 153.028L426.893 151.95C429.825 153.576 432.655 155.362 435.373 157.296L434.659 158.3C437.349 160.214 439.927 162.275 442.381 164.472L443.203 163.554C445.694 165.785 448.059 168.153 450.287 170.646L449.368 171.467C451.562 173.924 453.621 176.504 455.532 179.196L456.537 178.483C458.468 181.202 460.251 184.035 461.874 186.968L460.796 187.565C462.386 190.439 463.82 193.411 465.087 196.47L466.225 195.998C467.497 199.07 468.603 202.227 469.532 205.459L468.348 205.8C469.251 208.944 469.984 212.161 470.537 215.439L471.752 215.234Z" stroke="#00A854" stroke-width="2.4642" stroke-dasharray="9.86 9.86"/>
<rect x="76.1133" y="38.2424" width="277.846" height="477.639" rx="8.3509" fill="#108EE9"/>
<rect x="91.4561" y="63.8285" width="247.164" height="392.346" rx="8.3509" fill="white"/>
<circle r="37.3859" transform="matrix(-0.706842 0.707371 -0.706842 -0.707371 317.646 87.0841)" fill="#00A854"/>
<path d="M297.894 89.2213L312.842 99.9065L337.933 74.7963" stroke="white" stroke-width="4" stroke-linecap="round"/>
<rect x="176.687" y="478.351" width="75.0014" height="11.941" fill="white"/>
<path d="M125.196 193.38V156.001L153.616 193.38H125.196Z" fill="#78BAEC"/>
<path d="M68.8687 166.552V176.511H41.6416V166.552C41.6416 158.963 47.7973 152.798 55.3735 152.798C59.1616 152.798 62.4762 154.221 65.0806 156.829C67.4481 159.201 68.8687 162.757 68.8687 166.552Z" fill="#9ED3F9"/>
<path d="M237.913 177.222V391.586H82.5999C75.0237 391.586 68.868 385.183 68.868 377.595V166.552C68.868 166.077 68.868 165.603 68.868 165.129C68.868 164.654 68.868 164.417 68.6313 163.943C68.6313 163.706 68.6313 163.469 68.3945 163.232C68.3945 162.995 68.3945 162.757 68.1577 162.757C68.1577 162.52 67.921 162.283 67.921 162.046C67.921 161.809 67.921 161.809 67.6842 161.572C67.6842 161.335 67.4475 161.098 67.4475 160.86C67.2107 160.623 67.2107 160.149 66.974 159.912C66.7372 159.675 66.7372 159.438 66.5004 159.201C66.5004 158.963 66.2637 158.963 66.0269 158.726C65.7902 158.489 65.5534 158.015 65.3167 157.778C65.3167 157.304 65.0799 157.066 64.8431 156.829C64.6064 156.592 64.3696 156.355 64.1329 156.118C63.8961 155.881 63.6594 155.644 63.4226 155.407C63.1858 155.407 62.9491 155.169 62.7123 155.169C62.4756 154.932 62.0021 154.695 61.7653 154.458C61.055 153.984 60.3448 153.747 59.3977 153.509C59.161 153.272 58.6875 153.272 58.2139 153.272C57.7404 153.272 57.5037 153.035 57.0302 153.035V152.798H213.527C227.022 152.798 237.913 163.706 237.913 177.222Z" fill="#DAECF9"/>
<path d="M204.29 196.141C206.177 194.771 207.578 192.848 208.294 190.644C209.01 188.44 209.003 186.069 208.274 183.869C207.545 181.669 206.132 179.754 204.237 178.395C202.342 177.037 200.06 176.305 197.72 176.305C195.379 176.305 193.098 177.037 191.202 178.395C189.307 179.754 187.894 181.669 187.165 183.869C186.436 186.069 186.429 188.44 187.145 190.644C187.861 192.848 189.262 194.771 191.15 196.141C187.973 197.438 185.259 199.64 183.353 202.468C181.447 205.295 180.434 208.619 180.445 212.018V218.381C180.445 218.841 180.63 219.282 180.958 219.607C181.287 219.932 181.733 220.115 182.198 220.115C182.663 220.115 183.109 219.932 183.437 219.607C183.766 219.282 183.951 218.841 183.951 218.381V211.978C183.951 208.353 185.407 204.877 187.999 202.314C190.591 199.751 194.107 198.311 197.773 198.311C201.439 198.311 204.955 199.751 207.547 202.314C210.139 204.877 211.595 208.353 211.595 211.978V218.342C211.595 218.801 211.78 219.242 212.109 219.567C212.438 219.892 212.883 220.075 213.348 220.075C213.813 220.075 214.259 219.892 214.588 219.567C214.917 219.242 215.101 218.801 215.101 218.342V211.978C215.095 208.574 214.063 205.25 212.138 202.429C210.212 199.608 207.48 197.419 204.29 196.141ZM190.119 187.329C190.119 185.843 190.565 184.39 191.4 183.154C192.235 181.918 193.422 180.955 194.811 180.386C196.2 179.817 197.728 179.669 199.202 179.959C200.677 180.248 202.031 180.964 203.094 182.015C204.157 183.066 204.881 184.405 205.174 185.863C205.467 187.321 205.317 188.832 204.741 190.205C204.166 191.578 203.192 192.752 201.942 193.578C200.692 194.403 199.223 194.844 197.72 194.844C196.721 194.846 195.732 194.653 194.809 194.276C193.886 193.899 193.047 193.345 192.341 192.647C191.635 191.949 191.076 191.12 190.694 190.207C190.313 189.295 190.117 188.317 190.119 187.329Z" fill="#108EE9"/>
<path d="M261.591 367.636V373.802C261.591 383.524 253.778 391.349 244.071 391.349H82.6028C92.7833 391.349 100.833 385.184 100.833 377.596V367.399H261.591V367.636Z" fill="#74C3FD"/>
<path d="M168.013 184.816H85.6318V189.619H168.013V184.816Z" fill="white"/>
<path d="M168.014 202.425H85.6328V207.228H168.014V202.425Z" fill="white"/>
<path d="M168.014 220.034H85.6328V224.837H168.014V220.034Z" fill="white"/>
<path d="M221.102 238.163H85.9141V242.906H221.102V238.163Z" fill="white"/>
<path d="M221.102 255.947H85.9141V260.69H221.102V255.947Z" fill="white"/>
<path d="M221.102 273.968H85.9141V278.711H221.102V273.968Z" fill="white"/>
<path d="M221.102 291.755H85.9141V296.498H221.102V291.755Z" fill="white"/>
<path d="M221.102 309.539H85.9141V314.282H221.102V309.539Z" fill="white"/>
<path d="M220.156 340.839C220.156 349.613 213.053 356.964 204.057 356.964C195.296 356.964 187.957 349.85 187.957 340.839C187.957 332.066 195.06 324.715 204.057 324.715C212.817 324.952 220.156 332.066 220.156 340.839Z" fill="#00A854"/>
<rect x="55.522" y="404.968" width="190.054" height="56.6314" rx="5.88065" fill="#00A854"/>
<path d="M128.95 423.227L123.145 436.565L117.391 423.227H113.908L121.466 440.516H124.627L132.16 423.227H128.95ZM145.098 433.996C145.098 429.871 142.283 427.179 138.43 427.179C134.503 427.179 131.613 429.995 131.613 433.922C131.613 437.849 134.478 440.689 138.899 440.689C141.171 440.689 143.024 439.948 144.209 438.54L142.554 436.639C141.616 437.602 140.455 438.071 138.973 438.071C136.676 438.071 135.071 436.836 134.7 434.91H145.049C145.074 434.613 145.098 434.243 145.098 433.996ZM138.43 429.649C140.455 429.649 141.912 430.958 142.159 432.86H134.675C134.972 430.933 136.429 429.649 138.43 429.649ZM151.003 429.254V427.327H148.064V440.516H151.151V434.119C151.151 431.427 152.633 430.044 154.98 430.044C155.202 430.044 155.424 430.069 155.696 430.118V427.179C153.498 427.179 151.892 427.871 151.003 429.254ZM159.871 425.154C161.032 425.154 161.847 424.314 161.847 423.227C161.847 422.215 161.007 421.449 159.871 421.449C158.735 421.449 157.895 422.264 157.895 423.301C157.895 424.339 158.735 425.154 159.871 425.154ZM158.315 440.516H161.402V427.327H158.315V440.516ZM170.814 424.512C171.456 424.512 172.049 424.734 172.518 425.055L173.383 422.733C172.691 422.239 171.654 422.017 170.592 422.017C167.529 422.017 165.874 423.82 165.874 426.586V427.426H163.701V429.896H165.874V440.516H168.962V429.896H172.493V427.426H168.863V426.636C168.863 425.228 169.53 424.512 170.814 424.512ZM184.198 427.327L180.024 437.083L175.875 427.327H172.664L178.419 440.566L178.197 441.084C177.604 442.393 176.962 442.912 175.875 442.912C175.035 442.912 174.195 442.566 173.603 441.998L172.368 444.271C173.207 445.036 174.591 445.481 175.9 445.481C178.098 445.481 179.777 444.567 180.988 441.578L187.162 427.327H184.198Z" fill="white"/>
<path d="M198.872 120.762H203.572L193.925 108.795L203.016 99.1166H198.501L187.802 110.218V99.1166H183.783V120.762H187.802V115.227L191.235 111.702L198.872 120.762ZM222.58 99.1166H218.622L212.222 109.661L205.883 99.1166H201.585L210.088 113.186V120.762H214.108V113.124L222.58 99.1166ZM234.295 121.071C237.851 121.071 240.882 119.803 242.891 117.453L240.294 114.979C238.717 116.711 236.769 117.546 234.512 117.546C230.028 117.546 226.781 114.392 226.781 109.939C226.781 105.486 230.028 102.332 234.512 102.332C236.769 102.332 238.717 103.167 240.294 104.868L242.891 102.425C240.882 100.075 237.851 98.8074 234.326 98.8074C227.678 98.8074 222.731 103.477 222.731 109.939C222.731 116.402 227.678 121.071 234.295 121.071Z" fill="#00A854"/>
<path d="M319.668 224.468C319.668 221.645 320.374 211.766 321.08 207.532L330.959 201.887L337.31 241.404H312.612C315.905 236.934 319.668 227.29 319.668 224.468Z" fill="#0D0D0D"/>
<path d="M336.725 249.29C332.787 250.134 319.288 251.985 311.2 255.97L314.924 345.636L373.998 348.097L369.77 254.106C362.008 249.872 353.838 249.407 347.274 249.29C345.399 248.938 340.663 248.446 336.725 249.29Z" fill="#F9C232"/>
<path d="M355.642 512.284L370.507 398.059H341.56L336.866 512.284H355.642Z" fill="#CF9C69"/>
<path d="M323.254 527.306C326.01 525.345 333.59 517.501 337.724 510.965H354.262L354.951 542.014H346.682V533.843C341.859 538.745 314.985 543.648 312.918 540.379C310.85 537.111 319.808 529.757 323.254 527.306Z" fill="#1E1E1E"/>
<path d="M349.384 518.542L318.872 398.059H347.82L362.684 518.542H349.384Z" fill="#D9A877"/>
<path d="M308.563 422.215C307.125 411.194 308.562 341.607 318.77 316.203H369.679C376.268 327.583 386.705 395.237 382.232 422.215H308.563Z" fill="#2F2E41"/>
<path d="M376.422 527.306C373.941 525.345 367.112 515.322 362.978 510.965L347.895 511.782V542.014H355.337V533.843C359.678 538.745 383.864 543.648 385.725 540.379C387.585 537.111 379.523 529.757 376.422 527.306Z" fill="#373737"/>
<path d="M363.805 308.062C362.258 307.184 356.506 311.167 353.824 313.267L352.128 321.893C355.924 322.639 361.975 317.378 367.631 317.773C373.287 318.168 376.867 316.363 376.239 314.089C375.61 311.815 365.74 309.159 363.805 308.062Z" fill="#CA8C69"/>
<ellipse cx="344.205" cy="216.454" rx="18.6834" ry="24.072" transform="rotate(10.9374 344.205 216.454)" fill="#CA8C69"/>
<path d="M335.35 250.697C336.943 245.389 336.346 240.745 335.35 238.092C337.341 238.755 343.864 239.529 347.292 238.755C345.434 243.001 347.513 249.48 348.287 252.355C342.714 256.601 337.009 253.129 335.35 250.697Z" fill="#CA8C69"/>
<path d="M346.96 239.75C344.97 240.082 338.778 239.75 335.682 239.087C336.213 239.618 336.345 243.067 336.345 244.394L346.96 239.75Z" fill="#C1815D"/>
<path d="M371.18 319.026C368.93 310.024 370.475 273.158 369.769 254.105C386.999 266.764 387.36 327.351 380.679 333.329C375.334 338.111 335.898 329.611 320.373 317.614L328.135 312.675L371.18 319.026Z" fill="#E5B024"/>
<path d="M312.611 256.222C308.378 254.106 306.954 262.299 306.485 263.705C302.265 288.788 295.161 333.282 309.789 333.845C324.416 334.407 343.661 325.377 357.068 320.437L354.245 309.851C351.432 310.976 328.051 313.754 318.44 318.911C318.206 301.33 316.882 258.357 312.611 256.222Z" fill="#DEAA1F"/>
<path d="M320.198 305.55C323.293 305.831 327.552 311.741 328.841 314.085L320.198 318.56C320.198 317.154 319.425 314.622 316.33 315.747C312.462 317.154 307.188 312.934 306.133 311.176C305.078 309.418 316.33 305.198 320.198 305.55Z" fill="#CA8C69"/>
<path d="M342.955 186.362C326.019 186.927 321.08 202.122 321.08 208.238H325.313L330.253 203.298V208.238H335.898L340.132 203.298L345.778 213.177L352.128 215.294C352.128 221.504 347.424 235.758 345.778 242.109C354.245 243.238 372.357 238.816 379.649 236.464C376.121 234.347 376.121 228.702 374.709 216.705C373.298 204.709 364.125 185.657 342.955 186.362Z" fill="#0D0D0D"/>
</svg>
